<svg version="1.1" id="logo" xmlns="http://www.w3.org/2000/svg" xmlns:xlink="http://www.w3.org/1999/xlink" x="0px" y="0px"
	 viewBox="0 0 960 560" style="enable-background:new 0 0 960 560;" xml:space="preserve">


	 <defs>


		<script type="text/javascript"><![CDATA[
				window.addEventListener("load",function(){
					var st0 = document.getElementById("st0")
					var st1 = document.getElementById("st1")
					var st2 = document.getElementById("st2")
					var st3 = document.getElementById("st3")
					var st4 = document.getElementById("st4")
					var st5 = document.getElementById("st5")
					var st6 = document.getElementById("st6")
					var st7 = document.getElementById("st7")

					console.log("dniepr")

					st0.classList.add("animate");
					setTimeout(function(){
						console.log("timeout")
						st0.style.fill="#FFFFFF";
					},2000)

					setTimeout(function(){
						st1.classList.add("animate");
						setTimeout(function(){
							console.log("timeout")
							st1.style.fill="#FFFFFF";
						},1450)
					},2000)

					setTimeout(function(){
						st2.classList.add("animate");
						setTimeout(function(){
							console.log("timeout")
							st2.style.fill="#FFFFFF";
						},1600)
					},3500)

					setTimeout(function(){
						st3.classList.add("animate");
						setTimeout(function(){
							console.log("timeout")
							st3.style.fill="#FFFFFF";
						},2100)
					},5100)

					setTimeout(function(){
						st4.classList.add("animate");
						setTimeout(function(){
							console.log("timeout")
							st4.style.fill="#FFFFFF";
						},1500)
					},7100)

					setTimeout(function(){
						st5.classList.add("animate");
						setTimeout(function(){
							console.log("timeout")
							st5.style.fill="#FFFFFF";
						},2500)
					},8600)

					setTimeout(function(){
						st6.classList.add("animate");
						setTimeout(function(){
							console.log("timeout")
							st6.style.fill="#FFFFFF";
						},2000)
					},11000)

					setTimeout(function(){
						st7.classList.add("animate");
						setTimeout(function(){
							console.log("timeout")
							st7.style.fill="#FFFFFF";
						},2500)
					},13000)

				},false)


			]]>
		</script>

	 	<style type="text/css">

			path{
				stroke-width:2;
				stroke-dasharray: 800;
		 		stroke-dashoffset:0;

			}

			.animate{
				stroke:#FFFFFF;
				-webkit-animation: dash 3s linear forwards;
				-o-animation: dash 3s linear forwards;
				-moz-animation: dash 3s linear forwards;
				animation: dash 3s linear forwards;
			}


	 		@-webkit-keyframes dash{
	 			from{
	 				stroke-dashoffset:800;
	 			}
	 			to{
	 				stroke-dashoffset:0;
	 			}
	 		}


	 	</style>

	 </defs>


<g id="Totalbud-logo">
	<g>
		<path id="st0" class="st0" d="M116.3,246.2v106.9H71.7V246.2H37.5v-43.1h112.8v43.1H116.3z"/>
	</g>

	<g>
		<path id="st1" class="st1" d="M215.7,241.3c15.5,0,28.8,5.6,39.9,16.8c11.1,11.2,16.6,24.6,16.6,40.2c0,15.8-5.6,29.3-16.9,40.4
			c-11.2,11.1-24.8,16.7-40.7,16.7c-15.9,0-29.5-5.6-40.8-16.8c-11.3-11.2-16.9-24.6-16.9-40.4c0-16,5.6-29.5,16.9-40.5
			C185.3,246.7,199.2,241.3,215.7,241.3z M214.6,281.8c-4.4,0-8.1,1.6-11.2,4.8s-4.6,7.1-4.6,11.7c0,4.5,1.6,8.4,4.7,11.6
			c3.1,3.2,6.8,4.8,11.2,4.8c4.4,0,8.1-1.6,11.3-4.8c3.1-3.2,4.7-7.1,4.7-11.6c0-4.6-1.5-8.5-4.6-11.7S219.1,281.8,214.6,281.8z"/>
	</g>

	<g>
		<path id="st2" class="st2" d="M326,203.2v42h18.5v43.4H326c0,8.7,1.4,14.7,4.1,18s7.8,4.9,15.1,4.9v43.2c-2.1,0.1-3.7,0.1-4.7,0.1
			c-9.3,0-18.1-2.2-26.3-6.5c-8.2-4.3-14.9-10.2-19.8-17.6c-6.3-9.4-9.4-22-9.4-37.6v-90H326z"/>
	</g>
	<g>
		<path id="st3" class="st3" d="M425.6,312v42.5c-3.4,0.6-6.4,0.9-9.2,0.9c-16.5,0-30.2-5.4-41.2-16.3s-16.5-24.4-16.5-40.8
			c0-15.9,5.5-29.4,16.6-40.4c11.1-11.1,24.6-16.6,40.5-16.6c17.7,0,31.7,5.2,41.9,15.5c10.2,10.4,15.3,24.5,15.3,42.5v53.7h-41.1
			v-50.8c0-5.8-1.4-10.4-4.2-13.8c-2.8-3.4-6.6-5.2-11.4-5.2c-4.3,0-8.1,1.6-11.2,4.7c-3.2,3.2-4.7,6.9-4.7,11.2
			c0,4.5,1.4,8.3,4.3,11.2c2.9,2.9,6.5,4.4,10.9,4.4C419.2,314.9,422.5,313.9,425.6,312z"/>
	</g>
	<g>
		<path id="st4" class="st4" d="M538.1,203.2v150H497v-150H538.1z"/>
	</g>
	<g>
		<path id="st5" class="st5" d="M600.8,203.2v89.8c0,14.6,5.2,21.9,15.7,21.9c4.5,0,8.3-1.5,11.4-4.6c3.1-3,4.7-6.7,4.7-11
			c0-4.5-1.5-8.2-4.4-11.3c-2.9-3-6.5-4.6-10.8-4.6c-3,0-6.4,1.3-10.3,4V242c4.8-0.4,8.5-0.7,11-0.7c15.5,0,28.7,5.6,39.7,16.7
			c11,11.1,16.5,24.5,16.5,40.2c0,16-5.6,29.6-16.8,40.5s-25,16.5-41.3,16.5c-8.2,0-16.2-1.8-24-5.4c-7.8-3.6-14.2-8.4-19.3-14.5
			c-8.8-10.5-13.2-24.2-13.2-41v-91.3H600.8z"/>
	</g>
	<g>
		<path id="st6" class="st6" d="M692.3,245.1h41.1V307c0,6.2,2.6,9.3,7.8,9.3c5.1,0,7.7-3.1,7.7-9.3v-61.9H790v61.1c0,14.2-4.7,26.2-14.2,36
			s-21,14.7-34.7,14.7c-15.6,0-28.2-5.7-37.7-17c-7.4-8.9-11.1-21.2-11.1-36.9V245.1z"/>
	</g>
	<g>
		<path id="st7" class="st7" d="M881.4,203.2h41.1v91.3c0,16.8-4.4,30.4-13.2,41c-5.1,6.1-11.5,10.9-19.3,14.5c-7.8,3.6-15.8,5.4-24,5.4
			c-16.3,0-30.1-5.5-41.3-16.5s-16.8-24.5-16.8-40.4c0-15.5,5.6-28.8,16.7-40.1c11.1-11.3,24.3-16.9,39.6-16.9c2.4,0,6.1,0.2,11,0.7
			v45.3c-3.4-2.6-6.7-4-10.1-4c-4.2,0-7.9,1.6-10.9,4.7c-3,3.1-4.6,6.9-4.6,11.3c0,4.2,1.6,7.9,4.7,10.9c3.1,3,6.9,4.6,11.3,4.6
			c10.5,0,15.8-7.3,15.8-21.9V203.2z"/>
	</g>
</g>
</svg>
